<svg width="24" height="24" viewBox="0 0 24 24" fill="none" xmlns="http://www.w3.org/2000/svg">
<path d="M18.6666 16.5899C18.2773 17.4517 18.0917 17.8364 17.59 18.5981C16.8913 19.6612 15.907 20.9864 14.6863 20.9977C13.6019 21.0078 13.3229 20.2923 11.8514 20.3002C10.3799 20.308 10.0716 21.01 8.98713 20.9999C7.76652 20.9887 6.8339 19.7928 6.13415 18.7286C4.18116 15.7541 3.97641 12.2643 5.18128 10.4092C6.0374 9.08962 7.38852 8.319 8.65976 8.319C9.9535 8.319 10.7657 9.02774 11.8356 9.02774C12.8729 9.02774 13.5051 8.31787 15.0013 8.31787C16.132 8.31787 17.3301 8.93324 18.1828 9.99636C15.3872 11.5297 15.8417 15.5223 18.6666 16.5899V16.5899Z" fill="#FDCC0C"/>
<path d="M5.33348 16.5899C5.72273 17.4517 5.90836 17.8364 6.4101 18.5981C7.10872 19.6612 8.09309 20.9864 9.31371 20.9977C10.3982 21.0078 10.6772 20.2923 12.1487 20.3002C13.6202 20.308 13.9284 21.01 15.0129 20.9999C16.2335 20.9887 17.1662 19.7928 17.8659 18.7286C19.8189 15.7541 20.0236 12.2643 18.8188 10.4092C17.9627 9.08962 16.6115 8.319 15.3403 8.319C14.0466 8.319 13.2343 9.02774 12.1644 9.02774C11.1272 9.02774 10.495 8.31787 8.99871 8.31787C7.86809 8.31787 6.66998 8.93324 5.81723 9.99636C8.61284 11.5297 8.15834 15.5223 5.33348 16.5899V16.5899Z" fill="#FDCC0C"/>
<path d="M14.4793 6.03636C15.0936 5.24886 15.5593 4.13624 15.3894 3C14.3871 3.06862 13.2148 3.7065 12.5297 4.53787C11.9087 5.29274 11.3957 6.4121 11.5948 7.49997C12.6895 7.53372 13.8212 6.8801 14.4793 6.03636V6.03636Z" fill="#FDCC0C"/>
</svg>
