<svg width="24" height="24" viewBox="0 0 24 24" fill="none" xmlns="http://www.w3.org/2000/svg">
<path d="M4.53339 16.8V16.8C4.53339 18.6134 5.92005 20 7.73339 20H16.2667C18.0801 20 19.4667 18.6134 19.4667 16.8V16.8H4.53339Z" fill="#FD5181"/>
<path d="M19.4667 14.6667H4.53334C3.89334 14.6667 3.46667 14.24 3.46667 13.6V13.6C3.46667 12.96 3.89334 12.5333 4.53334 12.5333H19.4667C20.1067 12.5333 20.5333 12.96 20.5333 13.6V13.6C20.5333 14.24 20.1067 14.6667 19.4667 14.6667Z" fill="#FD5181"/>
<path fill-rule="evenodd" clip-rule="evenodd" d="M13.0667 4H10.9334C7.41339 4 4.53339 6.88 4.53339 10.4H19.4667C19.4667 6.88 16.5867 4 13.0667 4ZM9.86669 8.26666C9.22669 8.26666 8.80003 7.84 8.80003 7.2C8.80003 6.56 9.22669 6.13333 9.86669 6.13333C10.5067 6.13333 10.9334 6.56 10.9334 7.2C10.9334 7.84 10.5067 8.26666 9.86669 8.26666ZM14.1333 8.26663C14.1333 8.90663 14.56 9.3333 15.2 9.3333C15.84 9.3333 16.2667 8.90663 16.2667 8.26663C16.2667 7.62663 15.84 7.19997 15.2 7.19997C14.56 7.19997 14.1333 7.62663 14.1333 8.26663Z" fill="#FD5181"/>
</svg>
