<svg width="24" height="24" viewBox="0 0 24 24" fill="none" xmlns="http://www.w3.org/2000/svg">
<path d="M20.4698 5.28885C20.1307 4.94976 19.6786 4.7237 19.3395 4.7237C19.2265 4.27159 19.1135 3.9325 18.7744 3.59341C17.9832 2.8022 16.6268 2.8022 15.8356 3.59341C15.1574 4.27159 15.0444 5.40188 15.6095 6.19309L13.1229 8.56672L11.8796 7.32339L9.3929 9.81005C9.16684 9.69702 8.82775 9.69702 8.60169 9.69702C5.43685 9.69702 2.9502 12.1837 2.9502 15.3485C2.9502 18.5133 5.43685 21 8.60169 21C11.7665 21 14.2532 18.5133 14.2532 15.3485C14.2532 15.1224 14.2532 14.7834 14.1401 14.5573L16.6268 12.0706L15.3835 10.8273L17.7571 8.45369C18.5483 9.01884 19.6786 8.90581 20.3568 8.22763C21.261 7.43642 21.261 6.08006 20.4698 5.28885Z" fill="#4AB8FF"/>
</svg>
