<svg width="32" height="32" viewBox="0 0 32 32" fill="none" xmlns="http://www.w3.org/2000/svg">
<path d="M20.6667 7.66665C22.1333 7.66665 23.3333 6.46665 23.3333 4.99998C23.3333 3.53331 22.1333 2.33331 20.6667 2.33331C19.2 2.33331 18 3.53331 18 4.99998C18 6.46665 19.2 7.66665 20.6667 7.66665ZM6.66667 16.3333C2.93333 16.3333 0 19.2666 0 23C0 26.7333 2.93333 29.6666 6.66667 29.6666C10.4 29.6666 13.3333 26.7333 13.3333 23C13.3333 19.2666 10.4 16.3333 6.66667 16.3333ZM6.66667 27.6666C4.13333 27.6666 2 25.5333 2 23C2 20.4666 4.13333 18.3333 6.66667 18.3333C9.2 18.3333 11.3333 20.4666 11.3333 23C11.3333 25.5333 9.2 27.6666 6.66667 27.6666ZM14.4 14.3333L17.6 11.1333L18.6667 12.2C20.4 13.9333 22.6667 15 25.4667 15V12.3333C23.4667 12.3333 21.8667 11.5333 20.6667 10.3333L18.1333 7.79998C17.4667 7.26665 16.8 6.99998 16 6.99998C15.2 6.99998 14.5333 7.26665 14.1333 7.79998L10.4 11.5333C9.86667 12.0666 9.6 12.7333 9.6 13.4C9.6 14.2 9.86667 14.8666 10.4 15.2666L14.6667 19V25.6666H17.3333V17.4L14.4 14.3333ZM25.3333 16.3333C21.6 16.3333 18.6667 19.2666 18.6667 23C18.6667 26.7333 21.6 29.6666 25.3333 29.6666C29.0667 29.6666 32 26.7333 32 23C32 19.2666 29.0667 16.3333 25.3333 16.3333ZM25.3333 27.6666C22.8 27.6666 20.6667 25.5333 20.6667 23C20.6667 20.4666 22.8 18.3333 25.3333 18.3333C27.8667 18.3333 30 20.4666 30 23C30 25.5333 27.8667 27.6666 25.3333 27.6666Z" fill="#FF0101"/>
</svg>
