<svg width="24" height="24" viewBox="0 0 24 24" fill="none" xmlns="http://www.w3.org/2000/svg">
<path d="M13.9379 10.0796C13.9379 10.0796 14.7771 5.14312 11.3526 3C11.2495 4.71547 10.4205 6.30579 9.07339 7.37287C7.61089 8.65875 4.86026 11.55 4.88951 14.6325C4.86808 17.3204 6.37262 19.788 8.77189 21C8.85678 19.7981 9.42203 18.6809 10.3401 17.9006C11.1181 17.3023 11.6231 16.4167 11.7419 15.4425C13.79 16.5313 15.1146 18.6169 15.2294 20.9336V20.9482C17.493 19.9113 18.9832 17.6917 19.0859 15.204C19.3289 12.3083 17.7426 8.37075 16.3353 7.08375C15.8039 8.27 14.9788 9.30113 13.9379 10.0796Z" fill="#FF0000"/>
</svg>
