<svg width="32" height="32" viewBox="0 0 32 32" fill="none" xmlns="http://www.w3.org/2000/svg">
<path d="M16 9.77776C17.7182 9.77776 19.1111 8.38487 19.1111 6.66665C19.1111 4.94843 17.7182 3.55554 16 3.55554C14.2817 3.55554 12.8889 4.94843 12.8889 6.66665C12.8889 8.38487 14.2817 9.77776 16 9.77776Z" fill="#FF0101"/>
<path d="M30 22.2222V19.1111C26.5156 19.1111 23.5289 17.6178 21.2889 14.9422L19.2044 12.4533C18.6133 11.7378 17.7422 11.3333 16.8244 11.3333H15.1911C14.2733 11.3333 13.4022 11.7378 12.8111 12.4533L10.7267 14.9422C8.47111 17.6178 5.48444 19.1111 2 19.1111V22.2222C6.30889 22.2222 10.0733 20.4022 12.8889 17.1666V20.6666L6.85333 23.0778C5.81111 23.4978 5.11111 24.5244 5.11111 25.66C5.11111 27.2 6.35556 28.4444 7.89556 28.4444H11.3333V27.6666C11.3333 25.52 13.0756 23.7778 15.2222 23.7778H19.8889C20.3244 23.7778 20.6667 24.12 20.6667 24.5555C20.6667 24.9911 20.3244 25.3333 19.8889 25.3333H15.2222C13.9311 25.3333 12.8889 26.3755 12.8889 27.6666V28.4444H24.1044C25.6444 28.4444 26.8889 27.2 26.8889 25.66C26.8889 24.5244 26.1889 23.4978 25.1467 23.0778L19.1111 20.6666V17.1666C21.9267 20.4022 25.6911 22.2222 30 22.2222Z" fill="#FF0101"/>
</svg>
